<svg style="enable-background:new 0 0 32 32" viewBox="0 0 32 32" xml:space="preserve" xmlns="http://www.w3.org/2000/svg"><style>.st13{fill:#f2c09e}</style><g id="Bow"><path class="st13" d="m10.541 20.697-.117-.534-1.912 1.912h.414a1 1 0 0 1 1 1v.414l1.913-1.913-.535-.118a.995.995 0 0 1-.763-.761zM12.356 19.644l1.159.255 7.597-7.597a13.89 13.89 0 0 0-.666-.729c-.24-.24-.493-.464-.749-.685L12.1 18.485l.256 1.159zM23.762 9.264h-.026a.997.997 0 0 1-.999-1.026l.01-.399-1.635 1.635c.248.217.497.433.729.666.239.239.461.494.684.749l1.636-1.636-.399.011z"/><path d="M23.029 8.971a1 1 0 0 0 .707.293h.026l.399-.01 2.643-.069c.391-.011.739-.247.893-.606l2.222-5.185a1 1 0 0 0-1.313-1.313l-5.184 2.222a.997.997 0 0 0-.605.893l-.069 2.643-.01.399a.993.993 0 0 0 .291.733z" style="fill:#8b9ca5"/><path d="m24.982 22.419-11.466-2.521-1.159-.255-.255-1.159L9.58 7.017a5.87 5.87 0 0 1-2.295-1.671c-.161-.094-.247-.766-.215-.433l3.353 15.25.117.534a.999.999 0 0 0 .762.762l.535.118 15.25 3.353c.495.074-.303-.013-.433-.214a5.881 5.881 0 0 1-1.672-2.297z" style="fill:#e4edf2"/><path d="M8.925 22.075H5.962a.997.997 0 0 0-.707.293l-2.962 2.963a1 1 0 0 0 .391 1.656l1.747.583.583 1.747a1.002 1.002 0 0 0 1.656.39l2.962-2.962a.997.997 0 0 0 .293-.707v-2.963a1 1 0 0 0-1-1z" style="fill:#fbc34e"/><path d="M21.112 9.474c-2.499-2.189-5.747-3.591-9.271-3.959-1.376-.145-2.283-.582-3.033-1.464-.848-.957-2.336.3-1.523 1.295A5.87 5.87 0 0 0 9.58 7.017c.75.305 1.469.425 2.053.486 3.106.326 5.865 1.49 8.065 3.385.256.22.508.445.749.685.233.234.451.48.666.729 1.889 2.189 3.057 4.953 3.383 8.065.061.584.181 1.304.486 2.053a5.868 5.868 0 0 0 1.672 2.296c.987.841 2.253-.688 1.295-1.525-.882-.748-1.319-1.655-1.464-3.033-.368-3.514-1.764-6.756-3.96-9.268-.223-.255-.445-.51-.684-.749-.232-.234-.481-.45-.729-.667z" style="fill:#c77c58"/></g></svg>